<?xml version="1.0" encoding="UTF-8"?>
<svg width="20px" height="20px" viewBox="0 0 20 20" version="1.1" xmlns="http://www.w3.org/2000/svg" xmlns:xlink="http://www.w3.org/1999/xlink">
    <!-- Generator: sketchtool 51 (57462) - http://www.bohemiancoding.com/sketch -->
    <title>0BA7945A-A594-4F44-81C3-33EE1EB5E932</title>
    <desc>Created with sketchtool.</desc>
    <defs></defs>
    <g id="Symbols" stroke="none" stroke-width="1" fill="none" fill-rule="evenodd">
        <g id="Icons/Agency-Alert">
            <g id="Group-5">
                <g id="!-copy" fill="#8E8573">
                    <path d="M9.99909091,0 C4.485,0 0,4.45855599 0,9.93902439 C0,15.4203963 4.485,19.8780488 9.99909091,19.8780488 C15.5140909,19.8780488 20,15.4203963 20,9.93902439 C20,4.45855599 15.5140909,0 9.99909091,0" id="Fill-1-Copy-4"></path>
                </g>
                <g id="megaphone" transform="translate(5.000000, 5.000000)" fill="#FFFFFF" fill-rule="nonzero">
                    <path d="M4.66666667,6.37957739 L4.66666667,2.66666667 C4.56575,2.67640226 4.466,2.69283107 4.3645,2.69769886 L1.45833333,2.69769886 C1.29733333,2.69769886 1.16666667,2.83399712 1.16666667,3.00193605 L1.16666667,3.30617325 L0.291666667,3.30617325 C0.130666667,3.30617325 0,3.44247151 0,3.61041044 L0,5.43583361 C0,5.60377254 0.130666667,5.7400708 0.291666667,5.7400708 L1.16666667,5.7400708 L1.16666667,6.044308 C1.16666667,6.21224693 1.29733333,6.34854519 1.45833333,6.34854519 L1.63508333,6.34854519 L2.80758333,9.60875097 C2.87933333,9.80407125 3.03975,9.94584578 3.23691667,9.98722204 C3.276,9.99574068 3.31508333,10 3.35358333,10 C3.50933333,10 3.6575,9.93550171 3.76366667,9.81989158 L4.46425,9.09519858 C4.64333333,8.90839695 4.68591667,8.61693771 4.57158333,8.39119372 L3.59275,6.34854519 L4.36741667,6.34854519 C4.46775,6.35341299 4.56691667,6.3698418 4.66666667,6.37957739 Z" id="Shape"></path>
                    <path d="M9.28647619,0.149809524 C9.2807619,0.139285714 9.27561905,0.130619048 9.26819048,0.120714286 C9.2367619,0.0773809524 9.19733333,0.0420952381 9.1487619,0.0216666667 C9.14704762,0.021047619 9.14590476,0.0185714286 9.14419048,0.017952381 C9.13847619,0.0160952381 9.13333333,0.0191904762 9.12761905,0.0173333333 C9.10190476,0.00928571429 9.07619048,0 9.04761905,0 C9.02819048,0 9.01104762,0.00804761905 8.99219048,0.0123809524 C8.98133333,0.0148571429 8.97104762,0.0154761905 8.96019048,0.0191904762 C8.91104762,0.0365238095 8.8687619,0.0662380952 8.83504762,0.107095238 C8.8327619,0.109571429 8.82933333,0.110190476 8.82704762,0.112666667 C7.93619048,1.28452381 6.69390476,2.0682381 5.33333333,2.35547619 L5.33333333,6.31180952 C6.69390476,6.59904762 7.93619048,7.38214286 8.82704762,8.554 C8.82933333,8.55709524 8.83333333,8.55833333 8.83619048,8.56204762 C8.85619048,8.58619048 8.8807619,8.60538095 8.90704762,8.62147619 C8.91561905,8.62704762 8.92247619,8.63509524 8.93104762,8.63942857 C8.96704762,8.65614286 9.00590476,8.66666667 9.04761905,8.66666667 C9.08019048,8.66666667 9.11219048,8.66047619 9.14419048,8.64871429 C9.14590476,8.64809524 9.14704762,8.64561905 9.1487619,8.645 C9.19733333,8.62457143 9.2367619,8.58990476 9.26819048,8.54595238 C9.27504762,8.53604762 9.28019048,8.52738095 9.28647619,8.51685714 C9.31390476,8.46919048 9.33333333,8.41657143 9.33333333,8.35714286 L9.33333333,0.30952381 C9.33333333,0.250095238 9.31390476,0.19747619 9.28647619,0.149809524 Z" id="Shape"></path>
                </g>
            </g>
        </g>
    </g>
</svg>